<svg id="Capa_1" data-name="Capa 1" xmlns="http://www.w3.org/2000/svg" viewBox="0 0 318.51 100.39"><defs><style>.cls-1{fill:#fff;}.cls-2{fill:#64a5d8;}</style></defs><title>Logo_Oi</title><path class="cls-1" d="M282,118.54,265,151a1,1,0,0,1-1.79,0l-17.06-32.45a1,1,0,0,0-.88-.53H237a.75.75,0,0,0-.66,1.09l26.86,50.27a1,1,0,0,0,1.74,0L291.8,119.1a.74.74,0,0,0-.65-1.09h-8.26a1,1,0,0,0-.88.53" transform="translate(-139.24 -110.49)"/><path class="cls-1" d="M291.69,161.84l17.05-32.45a1,1,0,0,1,1.79,0l17.06,32.45a1,1,0,0,0,.88.53h8.24a.74.74,0,0,0,.65-1.09L310.51,111a1,1,0,0,0-1.75,0l-26.85,50.27a.74.74,0,0,0,.65,1.09h8.26a1,1,0,0,0,.87-.53" transform="translate(-139.24 -110.49)"/><path class="cls-1" d="M175.2,142c3.56-1.78,5.78-5.63,5.78-10.38,0-8.07-6.3-13.56-15.19-13.56H140.23a1,1,0,0,0-1,1v49.9a1,1,0,0,0,1,1h24.44c12.22,0,18.67-5.26,18.67-15.56,0-10.06-8.14-12.38-8.14-12.38m-26.39-16.44H164c5.58,0,8.43,2.39,8.43,6.8s-2.83,6.79-8.43,6.79H148.81a1,1,0,0,1-1-1V126.5a1,1,0,0,1,1-1m15.36,36.86H148.8a1,1,0,0,1-1-1V147.6a1,1,0,0,1,1-1h15.37c7.33,0,10.6,2.08,10.6,7.88s-3.2,7.88-10.6,7.88" transform="translate(-139.24 -110.49)"/><path class="cls-1" d="M227.62,142c3.56-1.78,5.78-5.63,5.78-10.38,0-8.07-6.3-13.56-15.19-13.56H192.65a1,1,0,0,0-1,1v49.9a1,1,0,0,0,1,1h24.44c12.22,0,18.67-5.26,18.67-15.56,0-10.06-8.14-12.38-8.14-12.38m-26.38-16.44h15.15c5.59,0,8.43,2.39,8.43,6.8s-2.83,6.79-8.43,6.79H201.24a1,1,0,0,1-1-1V126.5a1,1,0,0,1,1-1m15.35,36.86H201.23a1,1,0,0,1-1-1V147.6a1,1,0,0,1,1-1h15.36c7.33,0,10.6,2.08,10.6,7.88s-3.2,7.88-10.6,7.88" transform="translate(-139.24 -110.49)"/><path class="cls-2" d="M278.37,196.66c0-5.74,3.29-9.5,7.71-9.5s7.72,3.76,7.72,9.5-3.31,9.5-7.72,9.5S278.37,202.4,278.37,196.66Zm13.68,0c0-4.95-2.5-7.9-6-7.9s-6,3-6,7.9,2.5,7.91,6,7.91S292.05,201.6,292.05,196.66Z" transform="translate(-139.24 -110.49)"/><path class="cls-2" d="M297,210.88V192.8h1.53l.18,1.83a5.73,5.73,0,0,1,4.35-2.11c3,0,5.37,2.21,5.37,6.76S306,206,303,206a5.84,5.84,0,0,1-4.3-2v6.6Zm9.72-11.58c0-3.58-1.78-5.32-4-5.32-1.6,0-2.74.82-4.05,2.13v6.39a5.65,5.65,0,0,0,4.1,2.1C305,204.6,306.71,203,306.71,199.3Z" transform="translate(-139.24 -110.49)"/><path class="cls-2" d="M310.67,199.28c0-4.6,3-6.76,5.71-6.76,3,0,5.32,2.33,5.32,6.78v.32h-9.33c0,3.2,1.86,5,4.28,5a5.44,5.44,0,0,0,4.18-1.93l.84,1.11a6.34,6.34,0,0,1-5,2.25C313.34,206.08,310.67,203.73,310.67,199.28Zm9.37-1c-.17-2.48-1.36-4.33-3.68-4.33-1.88,0-3.67,1.41-4,4.33Z" transform="translate(-139.24 -110.49)"/><path class="cls-2" d="M324.67,205.81v-13h1.53l.17,2a7.05,7.05,0,0,1,4.92-2.33c2.63,0,3.94,1.41,3.94,3.84v9.45h-1.71v-9.1c0-1.84-.79-2.75-2.62-2.75-1.66,0-3.07.87-4.53,2.28v9.57Z" transform="translate(-139.24 -110.49)"/><path class="cls-2" d="M344.75,205.81V187.5h1.75v18.31Z" transform="translate(-139.24 -110.49)"/><path class="cls-2" d="M350.83,205.81v-13h1.54l.17,2a7,7,0,0,1,4.92-2.33c2.62,0,3.94,1.41,3.94,3.84v9.45h-1.71v-9.1c0-1.84-.79-2.75-2.62-2.75-1.66,0-3.07.87-4.53,2.28v9.57Z" transform="translate(-139.24 -110.49)"/><path class="cls-2" d="M365,205.81v-13h1.53l.17,2a7.05,7.05,0,0,1,4.92-2.33c2.63,0,3.94,1.41,3.94,3.84v9.45h-1.71v-9.1c0-1.84-.79-2.75-2.62-2.75-1.66,0-3.07.87-4.53,2.28v9.57Z" transform="translate(-139.24 -110.49)"/><path class="cls-2" d="M378.34,199.3c0-4.35,2.69-6.78,5.91-6.78s5.89,2.43,5.89,6.78-2.7,6.78-5.89,6.78S378.34,203.63,378.34,199.3Zm10.09,0c0-2.87-1.43-5.32-4.18-5.32S380,196.24,380,199.3c0,2.9,1.41,5.32,4.21,5.32C386.87,204.62,388.43,202.37,388.43,199.3Z" transform="translate(-139.24 -110.49)"/><path class="cls-2" d="M396.56,205.88,391.81,193l1.71-.33,3.94,11.16h0l3.84-11h1.73l-4.8,13.08Z" transform="translate(-139.24 -110.49)"/><path class="cls-2" d="M404.65,202.74c0-2.57,2.2-4.43,8.83-5.44v-.67a2.39,2.39,0,0,0-2.67-2.67,6.85,6.85,0,0,0-4.82,2L405,195a8.12,8.12,0,0,1,5.92-2.43c2.89,0,4.23,1.56,4.23,4.16v9.13h-1.51l-.18-1.86a7.55,7.55,0,0,1-5.14,2.08C406,206,404.65,204.77,404.65,202.74Zm8.83-.17v-4.06c-5.74,1-7.15,2.35-7.15,4,0,1.36.89,2.08,2.38,2.08A6.8,6.8,0,0,0,413.48,202.57Z" transform="translate(-139.24 -110.49)"/><path class="cls-2" d="M419.59,202.72v-8.49h-2.25V192.8h2.25v-4.58l1.71-.25v4.83h3.39v1.43H421.3v8.24c0,1.38.52,2.08,2,2.08a4.76,4.76,0,0,0,1.28-.18l.2,1.46A10.76,10.76,0,0,1,423,206C420.71,206,419.59,205.09,419.59,202.72Z" transform="translate(-139.24 -110.49)"/><path class="cls-2" d="M427.43,188.84a1,1,0,1,1,2.08,0,1,1,0,1,1-2.08,0Zm.2,17v-13h1.71v13Z" transform="translate(-139.24 -110.49)"/><path class="cls-2" d="M432.43,199.3c0-4.35,2.69-6.78,5.91-6.78s5.89,2.43,5.89,6.78-2.7,6.78-5.89,6.78S432.43,203.63,432.43,199.3Zm10.09,0c0-2.87-1.43-5.32-4.18-5.32s-4.21,2.26-4.21,5.32c0,2.9,1.41,5.32,4.21,5.32C441,204.62,442.52,202.37,442.52,199.3Z" transform="translate(-139.24 -110.49)"/><path class="cls-2" d="M447.19,205.81v-13h1.54l.17,2a7.05,7.05,0,0,1,4.92-2.33c2.63,0,3.94,1.41,3.94,3.84v9.45h-1.71v-9.1c0-1.84-.79-2.75-2.62-2.75-1.66,0-3.07.87-4.53,2.28v9.57Z" transform="translate(-139.24 -110.49)"/></svg>